<svg xmlns="http://www.w3.org/2000/svg" xmlns:xlink="http://www.w3.org/1999/xlink" width="500" zoomAndPan="magnify" viewBox="0 0 375 374.999991" height="500" preserveAspectRatio="xMidYMid meet" version="1.0"><defs><g/></defs><path fill="#ffffff" d="M 138.960938 202.238281 C 142.1875 195.527344 141.832031 186.777344 137.964844 177.605469 C 131.128906 161.394531 119.363281 152.132812 109.34375 155.082031 C 99.347656 158.03125 95.265625 171.695312 99.191406 189.085938 C 101.3125 198.484375 106.1875 205.808594 112.917969 209.714844 C 116.144531 211.589844 119.597656 212.546875 122.976562 212.546875 C 124.644531 212.546875 126.292969 212.316406 127.886719 211.84375 C 132.742188 210.414062 136.675781 207.003906 138.960938 202.238281 " fill-opacity="1" fill-rule="nonzero"/><path fill="#ffffff" d="M 145 161.292969 C 149.003906 164.933594 153.835938 166.886719 158.765625 166.886719 C 159.285156 166.886719 159.808594 166.867188 160.332031 166.824219 C 165.816406 166.359375 170.796875 163.589844 174.347656 159.023438 C 179.3125 152.636719 181.019531 143.347656 179.152344 132.863281 C 175.828125 114.230469 165.632812 101.886719 154.351562 102.835938 C 143.121094 103.78125 135.546875 117.328125 135.507812 136.542969 C 135.484375 146.914062 138.859375 155.703125 145 161.292969 " fill-opacity="1" fill-rule="nonzero"/><path fill="#ffffff" d="M 265.246094 155.082031 C 255.230469 152.132812 243.460938 161.394531 236.625 177.605469 C 232.757812 186.777344 232.402344 195.527344 235.628906 202.238281 C 237.914062 207.003906 241.847656 210.414062 246.703125 211.84375 C 248.300781 212.316406 249.945312 212.546875 251.613281 212.546875 C 254.992188 212.546875 258.445312 211.589844 261.675781 209.714844 C 268.402344 205.808594 273.277344 198.480469 275.398438 189.085938 C 279.324219 171.695312 275.242188 158.03125 265.246094 155.082031 " fill-opacity="1" fill-rule="nonzero"/><path fill="#ffffff" d="M 214.261719 166.824219 C 214.785156 166.867188 215.304688 166.886719 215.824219 166.886719 C 220.75 166.886719 225.589844 164.933594 229.589844 161.292969 C 235.734375 155.703125 239.105469 146.914062 239.082031 136.542969 C 239.042969 117.328125 231.46875 103.78125 220.238281 102.835938 C 208.96875 101.890625 198.761719 114.230469 195.4375 132.863281 C 193.570312 143.347656 195.273438 152.636719 200.242188 159.023438 C 203.796875 163.589844 208.773438 166.359375 214.261719 166.824219 " fill-opacity="1" fill-rule="nonzero"/><path fill="#ffffff" d="M 229.828125 217.070312 C 216.515625 207.363281 211.082031 192.507812 211.027344 192.359375 L 211.003906 192.292969 C 203.53125 174.125 189.933594 173.394531 187.324219 173.445312 C 184.671875 173.402344 171.074219 174.125 163.589844 192.3125 C 163.527344 192.472656 157.140625 208.386719 144.796875 217.054688 C 134.769531 224.097656 125.972656 237.429688 131.34375 253.738281 C 131.5 254.273438 133.230469 259.890625 138.285156 264.667969 C 146.996094 272.898438 158.46875 272.023438 166.558594 269.835938 L 166.613281 269.820312 C 166.691406 269.796875 174.546875 267.351562 181.496094 265.605469 C 185.292969 264.652344 189.308594 264.65625 193.105469 265.605469 C 200.054688 267.351562 207.910156 269.796875 207.992188 269.820312 L 208.042969 269.835938 C 211.96875 270.898438 215.472656 271.34375 218.59375 271.34375 C 227.132812 271.34375 232.796875 267.996094 236.316406 264.667969 C 241.375 259.890625 243.101562 254.273438 243.261719 253.738281 C 249.878906 233.632812 234.652344 220.589844 229.828125 217.070312 " fill-opacity="1" fill-rule="nonzero"/><g fill="#000000" fill-opacity="1"><g transform="translate(111.331144, 201.375613)"><g><path d="M 15.65625 -26.03125 L 19.65625 -27.390625 L 19.84375 -26.859375 L 18.75 -26.484375 C 18.476562 -26.390625 18.335938 -26.1875 18.328125 -25.875 L 18.859375 -6.390625 L 17.84375 -6.046875 L 8.046875 -19.125 L 8.265625 -2.796875 L 7.25 -2.453125 L -4.15625 -18.25 C -4.351562 -18.5 -4.585938 -18.578125 -4.859375 -18.484375 L -5.96875 -18.109375 L -6.15625 -18.640625 L -0.546875 -20.546875 L -0.359375 -20.015625 L -1.828125 -19.515625 L 7.21875 -6.671875 L 7.03125 -20.5 L 6.125 -21.734375 C 5.925781 -21.984375 5.691406 -22.0625 5.421875 -21.96875 L 4.34375 -21.59375 L 4.15625 -22.125 L 9.75 -24.03125 L 9.9375 -23.5 L 8.46875 -23 L 17.703125 -10.328125 L 17.296875 -26 L 15.84375 -25.5 Z M 15.65625 -26.03125 "/></g></g></g><g fill="#000000" fill-opacity="1"><g transform="translate(153.937821, 146.787987)"><g><path d="M 3.453125 -1.65625 L 0.796875 -23.078125 C 0.765625 -23.378906 0.570312 -23.507812 0.21875 -23.46875 L -1.546875 -23.234375 L -1.640625 -23.90625 L 6.0625 -24.875 L 6.15625 -24.203125 L 4.375 -23.984375 C 4.03125 -23.929688 3.875 -23.753906 3.90625 -23.453125 L 6.5625 -2.03125 C 6.613281 -1.6875 6.8125 -1.539062 7.15625 -1.59375 L 8.9375 -1.8125 L 9.015625 -1.125 L 1.3125 -0.15625 L 1.234375 -0.84375 L 3 -1.078125 C 3.351562 -1.117188 3.503906 -1.3125 3.453125 -1.65625 Z M 3.453125 -1.65625 "/></g></g></g><g fill="#000000" fill-opacity="1"><g transform="translate(206.231705, 143.976176)"><g><path d="M 3.78125 -0.703125 L 6.765625 -22.078125 C 6.804688 -22.378906 6.648438 -22.550781 6.296875 -22.59375 L 4.53125 -22.84375 L 4.625 -23.515625 L 12.296875 -22.453125 L 12.203125 -21.78125 L 10.453125 -22.015625 C 10.097656 -22.066406 9.898438 -21.941406 9.859375 -21.640625 L 6.875 -0.265625 C 6.820312 0.078125 6.972656 0.273438 7.328125 0.328125 L 9.078125 0.5625 L 8.984375 1.25 L 1.3125 0.1875 L 1.40625 -0.5 L 3.171875 -0.25 C 3.523438 -0.207031 3.726562 -0.359375 3.78125 -0.703125 Z M 16.421875 -4.421875 L 16.8125 -0.84375 C 16.957031 0.757812 17.453125 1.617188 18.296875 1.734375 C 18.710938 1.796875 19.0625 1.6875 19.34375 1.40625 C 19.625 1.132812 19.796875 0.78125 19.859375 0.34375 C 19.921875 -0.09375 19.941406 -0.503906 19.921875 -0.890625 L 20.640625 -0.921875 C 20.691406 -0.523438 20.6875 -0.101562 20.625 0.34375 C 20.5 1.25 20.128906 1.925781 19.515625 2.375 C 18.898438 2.832031 18.171875 3 17.328125 2.875 C 15.210938 2.582031 14.019531 1.046875 13.75 -1.734375 L 13.359375 -5.3125 C 13.171875 -7 12.742188 -8.210938 12.078125 -8.953125 C 11.410156 -9.703125 10.382812 -10.175781 9 -10.375 L 9.109375 -11.1875 L 19.515625 -20.75 L 17.625 -21.015625 L 17.71875 -21.6875 L 22.84375 -20.96875 L 22.75 -20.296875 L 21.734375 -20.4375 C 21.335938 -20.5 20.957031 -20.375 20.59375 -20.0625 L 10.75 -11.03125 C 12.6875 -10.738281 14.070312 -10.007812 14.90625 -8.84375 C 15.738281 -7.675781 16.242188 -6.203125 16.421875 -4.421875 Z M 16.421875 -4.421875 "/></g></g></g><g fill="#000000" fill-opacity="1"><g transform="translate(247.450373, 195.819174)"><g><path d="M 3.828125 0.015625 L 10.8125 -20.40625 C 10.90625 -20.6875 10.785156 -20.882812 10.453125 -21 L 8.765625 -21.5625 L 9 -22.21875 L 16.34375 -19.71875 L 16.109375 -19.0625 L 14.421875 -19.640625 C 14.085938 -19.753906 13.875 -19.671875 13.78125 -19.390625 L 6.796875 1.03125 C 6.679688 1.363281 6.789062 1.585938 7.125 1.703125 L 8.8125 2.28125 L 8.59375 2.9375 L 1.25 0.4375 L 1.46875 -0.21875 L 3.15625 0.34375 C 3.488281 0.457031 3.710938 0.347656 3.828125 0.015625 Z M 3.828125 0.015625 "/></g></g></g><g fill="#000000" fill-opacity="1"><g transform="translate(164.701165, 243.528147)"><g><path d="M 1.328125 -23.25 L 1.328125 -23.9375 L 10.609375 -23.9375 C 12.753906 -23.9375 14.566406 -23.285156 16.046875 -21.984375 C 17.535156 -20.679688 18.28125 -18.925781 18.28125 -16.71875 C 18.28125 -14.507812 17.535156 -12.753906 16.046875 -11.453125 C 14.566406 -10.148438 12.753906 -9.5 10.609375 -9.5 L 6.765625 -9.5 L 6.765625 -1.21875 C 6.765625 -0.863281 6.941406 -0.6875 7.296875 -0.6875 L 9.84375 -0.6875 L 9.84375 0 L 1.328125 0 L 1.328125 -0.6875 L 3.109375 -0.6875 C 3.460938 -0.6875 3.640625 -0.863281 3.640625 -1.21875 L 3.640625 -22.796875 C 3.640625 -23.097656 3.460938 -23.25 3.109375 -23.25 Z M 10.40625 -22.875 L 6.765625 -22.875 L 6.765625 -10.5625 L 10.40625 -10.5625 C 11.90625 -10.5625 13.082031 -11.175781 13.9375 -12.40625 C 14.800781 -13.632812 15.234375 -15.070312 15.234375 -16.71875 C 15.234375 -18.363281 14.800781 -19.800781 13.9375 -21.03125 C 13.082031 -22.257812 11.90625 -22.875 10.40625 -22.875 Z M 10.40625 -22.875 "/></g></g></g><g fill="#000000" fill-opacity="1"><g transform="translate(183.165393, 243.528147)"><g><path d="M 9.203125 -16.875 C 10.941406 -16.875 12.316406 -16.289062 13.328125 -15.125 C 14.347656 -13.957031 14.859375 -12.25 14.859375 -10 C 14.859375 -9.539062 14.832031 -9.03125 14.78125 -8.46875 L 4.40625 -8.46875 L 4.40625 -8.203125 C 4.40625 -5.796875 4.84375 -3.898438 5.71875 -2.515625 C 6.59375 -1.140625 7.71875 -0.453125 9.09375 -0.453125 C 10.476562 -0.453125 11.613281 -0.804688 12.5 -1.515625 C 13.382812 -2.222656 13.992188 -3.238281 14.328125 -4.5625 L 15.046875 -4.40625 C 14.742188 -2.863281 14.046875 -1.664062 12.953125 -0.8125 C 11.867188 0.03125 10.617188 0.453125 9.203125 0.453125 C 6.992188 0.453125 5.160156 -0.316406 3.703125 -1.859375 C 2.242188 -3.410156 1.515625 -5.519531 1.515625 -8.1875 C 1.515625 -10.863281 2.25 -12.976562 3.71875 -14.53125 C 5.1875 -16.09375 7.015625 -16.875 9.203125 -16.875 Z M 12.234375 -11.28125 C 12.234375 -14.394531 11.066406 -15.953125 8.734375 -15.953125 C 7.566406 -15.953125 6.570312 -15.316406 5.75 -14.046875 C 4.925781 -12.785156 4.492188 -11.179688 4.453125 -9.234375 L 12.078125 -9.234375 C 12.179688 -10.097656 12.234375 -10.78125 12.234375 -11.28125 Z M 12.234375 -11.28125 "/></g></g></g><g fill="#000000" fill-opacity="1"><g transform="translate(199.919966, 243.528147)"><g><path d="M 5.25 -20.4375 L 5.8125 -20.4375 L 5.8125 -16.421875 L 9.609375 -16.421875 L 9.609375 -15.734375 L 5.8125 -15.734375 L 5.8125 -2.84375 C 5.8125 -1.476562 6.191406 -0.796875 6.953125 -0.796875 C 7.304688 -0.796875 7.613281 -0.957031 7.875 -1.28125 C 8.144531 -1.613281 8.28125 -1.992188 8.28125 -2.421875 C 8.28125 -2.859375 8.242188 -3.265625 8.171875 -3.640625 L 8.890625 -3.765625 C 8.992188 -3.378906 9.046875 -2.960938 9.046875 -2.515625 C 9.046875 -1.597656 8.769531 -0.875 8.21875 -0.34375 C 7.675781 0.1875 6.960938 0.453125 6.078125 0.453125 C 5.191406 0.453125 4.46875 0.09375 3.90625 -0.625 C 3.351562 -1.34375 3.078125 -2.425781 3.078125 -3.875 L 3.078125 -15.203125 C 3.078125 -15.554688 2.898438 -15.734375 2.546875 -15.734375 L 0.765625 -15.734375 L 0.765625 -16.421875 L 2.625 -16.421875 C 3.4375 -16.421875 4.3125 -17.757812 5.25 -20.4375 Z M 5.25 -20.4375 "/></g></g></g></svg>